HIERARCHY
ROOT Hips
{
  OFFSET 5.84602e-005 68.8428 3.50346
  CHANNELS 6 Xposition Yposition Zposition Zrotation Xrotation Yrotation
  JOINT Spine
  {
    OFFSET 0 8.597 -4.6522
    CHANNELS 3 Zrotation Xrotation Yrotation
    JOINT Spine1
    {
      OFFSET 0 7.8454 0.4098
      CHANNELS 3 Zrotation Xrotation Yrotation
      JOINT Spine2
      {
        OFFSET 0 9.7078 -2.1609
        CHANNELS 3 Zrotation Xrotation Yrotation
        JOINT Neck
        {
          OFFSET 0 21.8761 -0.4549
          CHANNELS 3 Zrotation Xrotation Yrotation
          JOINT Head
          {
            OFFSET 0 12.3537 3.3602
            CHANNELS 3 Zrotation Xrotation Yrotation
            End Site
            {
              OFFSET 0.0001 18.9506 0.5657
            }
          }
        }
        JOINT LeftShoulder
        {
          OFFSET 2.2086 21.1115 7.2329
          CHANNELS 3 Zrotation Xrotation Yrotation
          JOINT LeftArm
          {
            OFFSET 13.1193 3.0282 -4.8998
            CHANNELS 3 Zrotation Xrotation Yrotation
            JOINT LeftForeArm
            {
              OFFSET 27.4081 -0.0973053 -0.2375
              CHANNELS 3 Zrotation Xrotation Yrotation
              JOINT LeftHand
              {
                OFFSET 22.8641 0.0662994 -0.1369
                CHANNELS 3 Zrotation Xrotation Yrotation
                JOINT LeftHandIndex1
                {
                  OFFSET 8.8614 0.775009 2.4612
                  CHANNELS 3 Zrotation Xrotation Yrotation
                  JOINT LeftHandIndex2
                  {
                    OFFSET 3.3146 -0.808304 0.5841
                    CHANNELS 3 Zrotation Xrotation Yrotation
                    JOINT LeftHandIndex3
                    {
                      OFFSET 2.2628 -0.552002 0.3989
                      CHANNELS 3 Zrotation Xrotation Yrotation
                      End Site
                      {
                        OFFSET 1.6102 -0.4807 0.2612
                      }
                    }
                  }
                }
                JOINT LeftHandMiddle1
                {
                  OFFSET 8.9937 0.895004 0.2143
                  CHANNELS 3 Zrotation Xrotation Yrotation
                  JOINT LeftHandMiddle2
                  {
                    OFFSET 4.0984 0.0113983 -0.0242
                    CHANNELS 3 Zrotation Xrotation Yrotation
                    JOINT LeftHandMiddle3
                    {
                      OFFSET 2.2716 0.00689697 -0.0138001
                      CHANNELS 3 Zrotation Xrotation Yrotation
                      End Site
                      {
                        OFFSET 2.0404 -0.1441 0.0027
                      }
                    }
                  }
                }
                JOINT LeftHandRing1
                {
                  OFFSET 8.5234 0.597198 -2.0164
                  CHANNELS 3 Zrotation Xrotation Yrotation
                  JOINT LeftHandRing2
                  {
                    OFFSET 3.7188 -0.188293 -0.2328
                    CHANNELS 3 Zrotation Xrotation Yrotation
                    JOINT LeftHandRing3
                    {
                      OFFSET 2.1191 -0.106598 -0.1332
                      CHANNELS 3 Zrotation Xrotation Yrotation
                      End Site
                      {
                        OFFSET 1.8737 -0.2304 -0.0886
                      }
                    }
                  }
                }
                JOINT LeftHandPinky1
                {
                  OFFSET 7.9094 -0.601089 -3.4825
                  CHANNELS 3 Zrotation Xrotation Yrotation
                  JOINT LeftHandPinky2
                  {
                    OFFSET 2.2874 -0.477005 -0.6314
                    CHANNELS 3 Zrotation Xrotation Yrotation
                    JOINT LeftHandPinky3
                    {
                      OFFSET 1.6774 -0.349396 -0.4633
                      CHANNELS 3 Zrotation Xrotation Yrotation
                      End Site
                      {
                        OFFSET 1.4888 -0.4091 -0.3416
                      }
                    }
                  }
                }
                JOINT LeftHandThumb1
                {
                  OFFSET 1.833 -1.3875 1.3896
                  CHANNELS 3 Zrotation Xrotation Yrotation
                  JOINT LeftHandThumb2
                  {
                    OFFSET 3.4129 -1.121 2.5732
                    CHANNELS 3 Zrotation Xrotation Yrotation
                    JOINT LeftHandThumb3
                    {
                      OFFSET 2.2474 -0.804199 1.6192
                      CHANNELS 3 Zrotation Xrotation Yrotation
                      End Site
                      {
                        OFFSET 1.6527 -0.5689 1.1317
                      }
                    }
                  }
                }
              }
            }
          }
        }
        JOINT RightShoulder
        {
          OFFSET -2.2086 21.1115 7.2329
          CHANNELS 3 Zrotation Xrotation Yrotation
          JOINT RightArm
          {
            OFFSET -13.1216 3.0287 -4.9007
            CHANNELS 3 Zrotation Xrotation Yrotation
            JOINT RightForeArm
            {
              OFFSET -27.4081 -0.0973053 -0.2375
              CHANNELS 3 Zrotation Xrotation Yrotation
              JOINT RightHand
              {
                OFFSET -22.8641 0.0664063 -0.1369
                CHANNELS 3 Zrotation Xrotation Yrotation
                JOINT RightHandIndex1
                {
                  OFFSET -8.8614 0.774994 2.4612
                  CHANNELS 3 Zrotation Xrotation Yrotation
                  JOINT RightHandIndex2
                  {
                    OFFSET -3.3146 -0.808304 0.5841
                    CHANNELS 3 Zrotation Xrotation Yrotation
                    JOINT RightHandIndex3
                    {
                      OFFSET -2.2628 -0.552002 0.3989
                      CHANNELS 3 Zrotation Xrotation Yrotation
                      End Site
                      {
                        OFFSET -1.6102 -0.4807 0.2612
                      }
                    }
                  }
                }
                JOINT RightHandMiddle1
                {
                  OFFSET -8.9937 0.894989 0.2143
                  CHANNELS 3 Zrotation Xrotation Yrotation
                  JOINT RightHandMiddle2
                  {
                    OFFSET -4.0984 0.0113983 -0.0242
                    CHANNELS 3 Zrotation Xrotation Yrotation
                    JOINT RightHandMiddle3
                    {
                      OFFSET -2.2716 0.00691223 -0.0138001
                      CHANNELS 3 Zrotation Xrotation Yrotation
                      End Site
                      {
                        OFFSET -2.0404 -0.1441 0.0027
                      }
                    }
                  }
                }
                JOINT RightHandRing1
                {
                  OFFSET -8.5234 0.597198 -2.0164
                  CHANNELS 3 Zrotation Xrotation Yrotation
                  JOINT RightHandRing2
                  {
                    OFFSET -3.7188 -0.188309 -0.2328
                    CHANNELS 3 Zrotation Xrotation Yrotation
                    JOINT RightHandRing3
                    {
                      OFFSET -2.1191 -0.106598 -0.1332
                      CHANNELS 3 Zrotation Xrotation Yrotation
                      End Site
                      {
                        OFFSET -1.8737 -0.2304 -0.0886
                      }
                    }
                  }
                }
                JOINT RightHandPinky1
                {
                  OFFSET -7.9094 -0.601105 -3.4825
                  CHANNELS 3 Zrotation Xrotation Yrotation
                  JOINT RightHandPinky2
                  {
                    OFFSET -2.2874 -0.477005 -0.6314
                    CHANNELS 3 Zrotation Xrotation Yrotation
                    JOINT RightHandPinky3
                    {
                      OFFSET -1.6774 -0.349396 -0.4633
                      CHANNELS 3 Zrotation Xrotation Yrotation
                      End Site
                      {
                        OFFSET -1.4888 -0.4091 -0.3416
                      }
                    }
                  }
                }
                JOINT RightHandThumb1
                {
                  OFFSET -1.833 -1.38751 1.3896
                  CHANNELS 3 Zrotation Xrotation Yrotation
                  JOINT RightHandThumb2
                  {
                    OFFSET -3.41299 -1.12099 2.5732
                    CHANNELS 3 Zrotation Xrotation Yrotation
                    JOINT RightHandThumb3
                    {
                      OFFSET -2.24741 -0.804108 1.6192
                      CHANNELS 3 Zrotation Xrotation Yrotation
                      End Site
                      {
                        OFFSET -1.6527 -0.5689 1.1317
                      }
                    }
                  }
                }
              }
            }
          }
        }
      }
    }
  }
  JOINT RightUpLeg
  {
    OFFSET -9.1966 3.8861 -0.7581
    CHANNELS 3 Zrotation Xrotation Yrotation
    JOINT RightLeg
    {
      OFFSET -0.7359 -41.0265 0
      CHANNELS 3 Zrotation Xrotation Yrotation
      JOINT RightFoot
      {
        OFFSET 0 -40.2855 0
        CHANNELS 3 Zrotation Xrotation Yrotation
        JOINT RightToeBase
        {
          OFFSET 0 -5.6122 11.7359
          CHANNELS 3 Zrotation Xrotation Yrotation
          End Site
          {
            OFFSET 0 0 7.8731
          }
        }
      }
    }
  }
  JOINT LeftUpLeg
  {
    OFFSET 9.1965 3.8864 -0.7581
    CHANNELS 3 Zrotation Xrotation Yrotation
    JOINT LeftLeg
    {
      OFFSET 0.7359 -41.0268 0
      CHANNELS 3 Zrotation Xrotation Yrotation
      JOINT LeftFoot
      {
        OFFSET 0 -40.2855 0
        CHANNELS 3 Zrotation Xrotation Yrotation
        JOINT LeftToeBase
        {
          OFFSET 0 -5.6122 11.7359
          CHANNELS 3 Zrotation Xrotation Yrotation
          End Site
          {
            OFFSET 0 0 7.8731
          }
        }
      }
    }
  }
}
MOTION
Frames:	4
Frame Time:	0.0333333
0.799293 14.7216 10.2526 10.6729 -89.4199 -169.207 -0.142821 -5.76774 -0.74131 -0.363863 -11.5328 -1.50871 -0.363864 -11.5328 -1.50871 -5.0091 3.05211 -20.7342 -14.7802 -18.4863 -19.7836 3.36432 37.3113 15.4636 51.5861 -1.58575 -47.5516 34.3043 -27.8709 -55.8627 77.5251 10.6753 53.0077 5.44264e-007 6.42801e-007 -1.14838e-007 -5.44264e-007 -6.42801e-007 1.14838e-007 -5.44264e-007 -6.42801e-007 1.14838e-007 5.44264e-007 6.42801e-007 -1.14838e-007 -0.0146095 -8.92257e-005 -2.27548e-006 -5.44254e-007 -6.42816e-007 1.14756e-007 5.44264e-007 6.42801e-007 -1.14838e-007 -0.0187507 -0.00117554 6.03206e-005 -8.68464e-008 -1.10343e-006 3.7247e-006 5.44264e-007 6.42801e-007 -1.14838e-007 -0.012239 -0.00323982 0.000671116 -5.44256e-007 -6.42808e-007 1.14784e-007 5.44264e-007 6.42801e-007 -1.14838e-007 -5.44264e-007 -6.42801e-007 1.14838e-007 -5.44264e-007 -6.42801e-007 1.14838e-007 45.0278 3.15482 -19.8298 -42.7059 13.2629 60.3129 -28.6297 -24.2726 55.6192 -59.2329 4.0898 8.32376 -3.32263e-008 4.13101e-008 6.06157e-009 -1.32905e-007 1.6524e-007 2.42463e-008 -3.32263e-008 4.13101e-008 6.06156e-009 -3.32263e-008 4.13101e-008 6.06157e-009 0.014995 -9.11352e-005 2.94834e-006 -3.32262e-008 4.13109e-008 6.05617e-009 -3.32263e-008 4.13101e-008 6.06157e-009 0.0189985 -0.00119081 -5.3871e-005 -3.32262e-008 4.13111e-008 6.05507e-009 -3.32263e-008 4.13101e-008 6.06157e-009 0.012273 -0.00324819 -0.000679265 -3.32263e-008 4.13105e-008 6.05811e-009 -3.32263e-008 4.13101e-008 6.06157e-009 -1.32905e-007 1.6524e-007 2.42463e-008 -3.32263e-008 4.13101e-008 6.06156e-009 -87.0257 -25.689 -87.0303 99.4772 82.2655 -97.396 -26.1245 46.1583 25.9389 -1.20646e-006 -1.5925e-006 -7.36531e-009 87.0197 -25.6971 87.0075 -99.4688 82.2655 97.3787 26.1017 46.1614 -25.9355 3.90633e-007 2.98944e-006 1.23634e-006 
0.799725 14.8767 10.3234 151.484 -89.7637 -28.3907 -0.138297 -6.0532 -0.742622 -0.359026 -12.104 -1.51281 -0.359027 -12.1041 -1.51281 -5.0084 2.89284 -20.7481 -14.8054 -18.7687 -19.8623 3.58624 37.7969 14.9608 51.511 -1.45927 -47.5703 34.1005 -27.6048 -55.5407 77.5251 10.6753 53.0077 1.02562e-006 2.26222e-007 3.49334e-006 7.95139e-016 -1.93815e-015 -1.11319e-014 6.34399e-008 1.05958e-006 -3.72301e-006 1.02562e-006 2.26222e-007 3.49334e-006 -0.01461 -8.88769e-005 4.2038e-006 6.53332e-008 1.06006e-006 -3.72288e-006 1.02562e-006 2.26222e-007 3.49334e-006 -0.0187457 -0.00117484 6.34094e-005 5.44516e-007 6.42918e-007 -1.14734e-007 1.02562e-006 2.26222e-007 3.49334e-006 -0.0122558 -0.00324296 0.000673537 5.44522e-007 6.42907e-007 -1.1478e-007 1.02562e-006 2.26222e-007 3.49334e-006 7.95139e-016 -1.93815e-015 -1.11319e-014 6.34399e-008 1.05958e-006 -3.72301e-006 45.1646 3.42655 -19.7851 -42.6513 13.383 60.2574 -28.488 -24.085 55.317 -59.0594 3.97284 8.52594 -1.66124e-007 2.06553e-007 3.03294e-008 -1.15934e-006 8.80636e-008 9.67786e-008 -1.66124e-007 2.06553e-007 3.03294e-008 -1.66124e-007 2.06553e-007 3.03294e-008 0.0149949 -9.13487e-005 1.5108e-005 -1.66124e-007 2.06557e-007 3.03025e-008 -1.66124e-007 2.06553e-007 3.03294e-008 0.0189915 -0.00119099 -5.13358e-005 -1.66123e-007 2.06558e-007 3.02969e-008 -1.66124e-007 2.06553e-007 3.03294e-008 0.0122716 -0.00324829 -0.000680678 -1.66124e-007 2.06555e-007 3.0312e-008 -1.66124e-007 2.06553e-007 3.03294e-008 -1.15934e-006 8.80636e-008 9.67786e-008 -1.66124e-007 2.06553e-007 3.03294e-008 -87.4838 -26.1617 -87.6355 99.5262 82.2644 -97.4408 -25.4604 46.3829 25.4233 -3.50405e-006 -1.0079e-006 -4.71027e-007 87.4781 -26.1695 87.6132 -99.5173 82.2645 97.4228 25.4382 46.3859 -25.4202 6.45502e-007 2.6809e-006 1.98349e-006 
0.800171 15.0325 10.393 173.158 -89.0078 -6.71244 -0.133766 -6.33874 -0.743877 -0.354201 -12.6751 -1.51681 -0.354201 -12.6751 -1.51681 -5.00773 2.73348 -20.7621 -14.831 -19.0511 -19.9413 3.81503 38.2807 14.4522 51.4358 -1.3328 -47.5889 33.8955 -27.3398 -55.2184 77.525 10.6753 53.0077 2.38542e-015 3.62782e-015 -1.59028e-015 3.97569e-016 3.77691e-015 -1.59028e-015 1.98785e-015 -2.38542e-015 -0 2.38542e-015 3.62782e-015 -1.59028e-015 -0.0146066 -8.8608e-005 -4.32652e-006 -3.97569e-016 1.14301e-015 1.59028e-015 2.38542e-015 3.62782e-015 -1.59028e-015 -0.0187542 -0.00117556 6.39916e-005 -1.98785e-015 -1.09332e-015 -1.59028e-015 2.38542e-015 3.62782e-015 -1.59028e-015 -0.0122747 -0.00324843 0.000670097 7.95139e-016 -4.57205e-015 1.59028e-015 2.38542e-015 3.62782e-015 -1.59028e-015 3.97569e-016 3.77691e-015 -1.59028e-015 1.98785e-015 -2.38542e-015 -0 45.3012 3.69831 -19.741 -42.5965 13.5031 60.2017 -28.3455 -23.8982 55.0147 -58.8856 3.85653 8.72838 -9.96676e-008 1.23935e-007 1.82118e-008 -6.64451e-008 8.26234e-008 1.21412e-008 -9.96677e-008 1.23935e-007 1.82118e-008 -9.96676e-008 1.23935e-007 1.82118e-008 0.0149992 -9.14047e-005 8.2945e-006 -9.96675e-008 1.23937e-007 1.81957e-008 -9.96676e-008 1.23935e-007 1.82118e-008 0.018988 -0.00119024 -6.34097e-005 4.27544e-007 4.45619e-007 1.0539e-006 -9.96676e-008 1.23935e-007 1.82118e-008 0.0122754 -0.00324825 -0.000682745 4.2699e-007 4.45385e-007 1.05387e-006 -9.96676e-008 1.23935e-007 1.82118e-008 -6.64451e-008 8.26234e-008 1.21412e-008 -9.96677e-008 1.23935e-007 1.82118e-008 -87.9496 -26.63 -88.2473 99.575 82.2633 -97.4851 -24.7907 46.6035 24.9018 -1.3742e-007 3.29903e-006 -4.79025e-007 87.9441 -26.6372 88.2255 -99.5658 82.2633 97.4668 24.769 46.6063 -24.8991 3.75589e-006 -1.31622e-006 1.22219e-006 
0.800627 15.1888 10.4611 175.986 -88.2333 -3.87975 -0.129228 -6.62419 -0.745076 -0.349387 -13.246 -1.52072 -0.349387 -13.2461 -1.52072 -5.00711 2.57322 -20.7762 -14.8571 -19.3337 -20.0206 4.0508 38.7629 13.9379 51.3608 -1.20629 -47.6072 33.6894 -27.0758 -54.8959 77.5251 10.6753 53.0077 -5.23079e-007 3.3001e-007 -3.60331e-006 1.49722e-007 8.85501e-007 -8.71481e-007 3.57812e-015 1.49585e-014 -9.54166e-015 -5.23079e-007 3.3001e-007 -3.60331e-006 -0.0146167 -8.85145e-005 7.80158e-006 2.38542e-015 -4.47266e-016 -1.59028e-015 -5.23079e-007 3.3001e-007 -3.60331e-006 -0.0187643 -0.00117676 6.01386e-005 3.97569e-016 -8.94531e-016 -1.59028e-015 -5.23079e-007 3.3001e-007 -3.60331e-006 -0.0122761 -0.00324959 0.000677774 -3.97569e-016 -5.76476e-015 -0 -5.23079e-007 3.3001e-007 -3.60331e-006 1.49722e-007 8.85501e-007 -8.71481e-007 3.57812e-015 1.49585e-014 -9.54166e-015 45.4377 3.97022 -19.6975 -42.5416 13.6231 60.1458 -28.2022 -23.7121 54.7124 -58.7113 3.74082 8.93115 1.32878e-007 -1.65253e-007 -2.43029e-008 3.32196e-008 -4.13132e-008 -6.07571e-009 1.32878e-007 -1.65253e-007 -2.43029e-008 1.32878e-007 -1.65253e-007 -2.43029e-008 0.0149977 -9.15849e-005 5.84307e-006 1.32878e-007 -1.65256e-007 -2.42814e-008 1.32878e-007 -1.65253e-007 -2.43029e-008 0.0189962 -0.001191 -5.23036e-005 1.32878e-007 -1.65257e-007 -2.42769e-008 1.32878e-007 -1.65253e-007 -2.43029e-008 0.0122692 -0.00324685 -0.000684202 1.32879e-007 -1.65255e-007 -2.42889e-008 1.32878e-007 -1.65253e-007 -2.43029e-008 3.32196e-008 -4.13132e-008 -6.07571e-009 1.32878e-007 -1.65253e-007 -2.43029e-008 -88.423 -27.0936 -88.8656 99.6252 82.2622 -97.5309 -24.1151 46.8198 24.3744 3.50455e-006 1.00589e-006 4.73192e-007 88.4178 -27.1004 88.8443 -99.6157 82.2622 97.5119 24.0941 46.8226 -24.372 6.88045e-006 1.59606e-006 6.91381e-007 
